<?xml version="1.0" encoding="UTF-8"?>
<svg id="Calque_2" xmlns="http://www.w3.org/2000/svg" viewBox="0 0 600 118.04">
  <defs>
    <style>
      .cls-1 {
        fill: #fff;
      }
    </style>
  </defs>
  <g id="Calque_1-2" data-name="Calque_1">
    <g>
      <path class="cls-1" d="M143.63,68.97c0,3.27.35,4.68,1.77,5.57,1.94,1.15,2.12,1.15,16.27,1.24q19.28-.09,19.28-5.22c0-3.54-1.32-4.42-7.07-4.51-2.03,0-7.87-.27-14.15-.53-6.55-.36-12.38-.62-14.33-.62-8.58-.27-12.73-1.5-15.39-4.51-2.21-2.65-3.27-6.46-3.27-12.38,0-8.75,2.03-14.06,6.19-16.36,4.6-2.47,9.73-3.01,31.04-3.01,16.45,0,22.64.8,26.88,3.27,3.8,2.39,5.39,6.19,5.39,13.44,0,.36,0,1.59-.09,2.74h-17.33c-.09-2.92-.36-3.72-1.33-4.6-1.41-1.15-3.45-1.33-16.98-1.33-15.12,0-16.36.35-16.36,4.69,0,2.12.8,3.27,2.48,3.8,1.59.44,6.19.71,19.1,1.06,19.01.53,22.99,1.06,26.71,3.27,4.33,2.56,5.93,6.63,5.93,15.03,0,9.99-2.3,15.03-8.05,17.34-3.63,1.59-10.7,2.03-29.09,2.03s-24.94-.8-29.18-3.19c-4.42-2.47-5.84-6.01-5.84-14.41v-2.83h17.42Z"/>
      <path class="cls-1" d="M218.06,48.1l11.75,29.95,13.06-29.95h17.06l-21.94,46.49c-4.27,8.97-4.53,9.4-7.14,10.97-2.52,1.57-5.92,2.26-11.23,2.26-3.22,0-5.57-.09-6.62-.26v-10.53c.35-.09.61-.09.7-.09h2.79c5.14.09,6.7-1.3,9.23-7.66h-6.18l-18.37-41.18h16.89Z"/>
      <path class="cls-1" d="M276.85,48.1v6.18h.79c2.26-4.96,7.49-7.23,16.63-7.23,9.92,0,15.41,2.52,18.72,8.62,2.61-6.18,7.66-8.62,17.76-8.62,8.53,0,13.58,1.57,17.15,5.31,3.57,3.66,4.36,7.05,4.36,17.68v19.24h-15.41v-19.24c-.09-6.88-.26-7.66-1.74-9.14-1.57-1.57-4.18-2.26-8.71-2.26s-7.49.78-9.14,2.61c-1.74,1.91-2.26,4.35-2.26,11.06v16.98h-15.41v-19.24c0-6.44-.17-7.57-1.65-9.14-1.39-1.57-4.09-2.26-8.54-2.26s-7.66.78-9.4,2.52c-1.74,1.74-2.26,4.35-2.26,11.14v16.98h-15.41v-41.18h14.54Z"/>
      <path class="cls-1" d="M413.16,76.13c-1.13,11.41-6.79,14.19-28.82,14.19-11.93,0-17.59-1.05-21.33-3.83-4.01-3.05-5.22-7.14-5.22-17.67,0-11.06,1.22-15.15,5.57-18.2,4.01-2.79,9.23-3.65,22.55-3.65s18.37.78,22.11,3.57c4.01,2.96,5.48,7.66,5.48,17.33,0,.52,0,2.44-.09,4.18h-40.22c0,4.18.44,5.57,1.91,6.7,1.66,1.22,4.88,1.74,10.45,1.74,9.84,0,11.66-.69,12.27-4.35h15.32ZM398.01,63.6c-.09-3.22-.26-4.01-1.22-4.96-1.39-1.48-4.53-2.09-10.62-2.09-10.36,0-12.8,1.3-12.97,7.05h24.81ZM395.05,21.46l7.75,10.53-21.68,12.54-4.09-5.22,18.02-17.85Z"/>
      <path class="cls-1" d="M440.09,38.61v9.49h24.38v11.06h-24.38v12.02c0,4.35.09,4.96.69,6.09.78,1.48,2.35,2.09,5.4,2.09s4.88-.61,5.57-2.09c.52-.96.61-1.3.61-5.57h14.1c-.17,7.84-.78,10.36-3.13,13.41-3.13,3.92-7.84,5.22-18.46,5.22-9.84,0-13.84-.87-16.89-3.83-2.18-2.09-2.96-4.35-3.22-8.71q-.09-1.31-.09-6.62v-12.02h-8.1v-11.06h8.1v-9.49h15.41Z"/>
      <path class="cls-1" d="M485.47,48.1v6.18h.79c2.87-5.22,7.22-7.23,15.84-7.23,12.45,0,16.63,4.18,16.63,16.54v2.79h-14.54c0-6.09-1.74-7.75-8.1-7.75-3.48,0-6.36,1.05-7.84,2.96-1.48,2-1.91,4.27-1.91,10.62v17.06h-15.41v-41.18h14.54Z"/>
      <path class="cls-1" d="M538.44,31.21v11.58h-15.41v-11.58h15.41ZM538.44,48.1v41.18h-15.41v-41.18h15.41Z"/>
      <path class="cls-1" d="M599.65,76.13c-1.13,11.41-6.79,14.19-28.82,14.19-11.93,0-17.59-1.05-21.33-3.83-4.01-3.05-5.22-7.14-5.22-17.67,0-11.06,1.22-15.15,5.57-18.2,4.01-2.79,9.23-3.65,22.55-3.65s18.37.78,22.11,3.57c4.01,2.96,5.48,7.66,5.48,17.33,0,.52,0,2.44-.09,4.18h-40.22c0,4.18.44,5.57,1.91,6.7,1.66,1.22,4.88,1.74,10.45,1.74,9.84,0,11.66-.69,12.27-4.35h15.32ZM584.5,63.6c-.09-3.22-.26-4.01-1.22-4.96-1.39-1.48-4.53-2.09-10.62-2.09-10.36,0-12.8,1.3-12.97,7.05h24.81Z"/>
      <g>
        <rect class="cls-1" x="72.63" y="13.62" width="18.17" height="90.8"/>
        <rect class="cls-1" y="13.62" width="18.17" height="90.8"/>
        <rect class="cls-1" x="36.32" width="18.16" height="118.04"/>
      </g>
    </g>
  </g>
</svg>